HIERARCHY
ROOT Hips
{
  OFFSET 0 0 0
  CHANNELS 6 Xposition Yposition Zposition Zrotation Xrotation Yrotation
  JOINT Spine
  {
    OFFSET 0 10 0
    CHANNELS 3 Zrotation Xrotation Yrotation
    JOINT Neck
    {
      OFFSET 0 30 0
      CHANNELS 3 Zrotation Xrotation Yrotation
      JOINT Head
      {
        OFFSET 0 8 0
        CHANNELS 3 Zrotation Xrotation Yrotation
        End Site
        {
          OFFSET 0 10 0
        }
      }
    }
    JOINT LeftArm
    {
      OFFSET 15 30 0
      CHANNELS 3 Zrotation Xrotation Yrotation
      JOINT LeftForeArm
      {
        OFFSET 25 0 0
        CHANNELS 3 Zrotation Xrotation Yrotation
        JOINT LeftHand
        {
          OFFSET 25 0 0
          CHANNELS 3 Zrotation Xrotation Yrotation
          End Site
          {
            OFFSET 10 0 0
          }
        }
      }
    }
    JOINT RightArm
    {
      OFFSET -15 30 0
      CHANNELS 3 Zrotation Xrotation Yrotation
      JOINT RightForeArm
      {
        OFFSET -25 0 0
        CHANNELS 3 Zrotation Xrotation Yrotation
        JOINT RightHand
        {
          OFFSET -25 0 0
          CHANNELS 3 Zrotation Xrotation Yrotation
          End Site
          {
            OFFSET -10 0 0
          }
        }
      }
    }
  }
  JOINT LeftUpLeg
  {
    OFFSET 10 -10 0
    CHANNELS 3 Zrotation Xrotation Yrotation
    JOINT LeftLeg
    {
      OFFSET 0 -35 0
      CHANNELS 3 Zrotation Xrotation Yrotation
      JOINT LeftToe
      {
        OFFSET 0 -40 0
        CHANNELS 3 Zrotation Xrotation Yrotation
        JOINT LeftToeEnd
        {
          OFFSET 0 0 0
          CHANNELS 3 Zrotation Xrotation Yrotation
          End Site
          {
            OFFSET 0 0 15
          }
        }
      }
    }
  }
  JOINT RightUpLeg
  {
    OFFSET -10 -10 0
    CHANNELS 3 Zrotation Xrotation Yrotation
    JOINT RightLeg
    {
      OFFSET 0 -35 0
      CHANNELS 3 Zrotation Xrotation Yrotation
      JOINT RightToe
      {
        OFFSET 0 -40 0
        CHANNELS 3 Zrotation Xrotation Yrotation
        JOINT RightToeEnd
        {
          OFFSET 0 0 0
          CHANNELS 3 Zrotation Xrotation Yrotation
          End Site
          {
            OFFSET 0 0 15
          }
        }
      }
    }
  }
}
MOTION
Frames:	17
Frame Time:	0.0333333
5.53796 90.9785 -89.2402 1.06636 7.36049 -3.62196 -0.226522 4.68467 0.781859 -6.14439 -18.0728 -3.98155 10.5262 19.3187 -6.96717 -85.7221 20.1357 -6.7555 11.8283 -2.77495 -23.1941 -0.483759 4.38802 -2.62347 89.5282 19.7579 5.64918 -15.3868 -4.46715 25.7211 0.845704 5.12125 -0.28858 0.856819 -8.51949 -0.278141 0.0272008 15.821 -0.680812 -0.870512 -7.30026 7.65839 2.98177e-016 -1.59028e-015 -0 -1.14774 -10.8634 4.66024 -0.904338 20.252 0.693485 0.0188606 -8.83954 -9.30445 -3.97569e-016 -1.59028e-015 1.59028e-015 
5.57391 90.9818 -89.137 1.13275 7.47079 -3.37498 -0.262695 4.66971 0.806457 -6.22741 -18.0355 -4.11601 10.5502 19.2377 -7.25588 -85.7269 20.3249 -6.71392 12.148 -2.92072 -23.8419 -0.225849 5.88522 -2.79006 89.5127 19.9156 5.6518 -15.2925 -4.3835 25.5097 0.908943 4.10038 -0.432226 0.74894 -8.55357 -0.353847 0.0259696 15.7213 -0.680478 -0.86573 -7.342 7.43604 2.48481e-016 1.59028e-015 -7.95139e-016 -1.2282 -10.8983 4.70216 -0.900711 20.3898 0.678587 0.000617757 -8.95878 -9.50982 5.96354e-016 3.18055e-015 7.95139e-016 
5.6016 90.9697 -89.0608 1.10911 7.43875 -3.13042 -0.254997 4.91065 0.852007 -6.29583 -17.9932 -4.1551 10.678 19.0629 -7.35201 -85.6323 21.1022 -6.59405 12.1736 -3.01607 -24.0172 -0.51605 3.83669 -2.58843 89.4453 20.4925 5.62138 -15.5842 -4.57329 26.0891 0.95564 3.77097 -0.348155 0.715795 -8.66142 -0.447677 0.0302148 16.0647 -0.68164 -0.849589 -7.45091 7.30852 -1.10348e-032 -1.59028e-015 -3.97569e-016 -1.24822 -10.7581 4.59173 -0.897437 20.4742 0.678096 -0.0529295 -9.08281 -9.77386 3.97569e-016 1.59028e-015 -1.59028e-015 
5.62747 90.9134 -89.1076 0.966796 7.54908 -2.76671 -0.128086 5.48747 0.504105 -6.27374 -18.2158 -4.26263 10.6615 18.6264 -7.1076 -85.4508 21.3064 -6.75722 12.5291 -3.25724 -24.8242 -0.448888 4.20264 -2.59045 89.2051 21.1754 5.91046 -15.8877 -4.91351 26.8938 0.617859 3.82946 -0.0343321 0.899158 -9.28714 -0.22658 0.0402643 16.7907 -0.67052 -0.797974 -7.81168 6.79344 4.96962e-017 1.59028e-015 1.19271e-015 -1.04473 -11.0573 4.6764 -0.890989 20.862 0.682397 -0.139672 -9.24642 -10.1596 -3.97569e-016 0 3.18055e-015 
5.72709 90.8177 -89.3044 0.886962 7.78178 -2.54789 0.130778 6.40996 0.634096 -6.46733 -18.8654 -4.31387 10.6736 18.0632 -7.16497 -85.1736 22.0467 -7.46728 12.9237 -3.48332 -25.6546 -0.377992 4.08001 -2.6844 88.595 22.3614 6.44095 -17.2021 -5.92449 29.6545 0.551693 7.51721 0.435107 0.891459 -10.5311 -0.370181 0.0611732 18.2686 -0.639999 -0.705812 -8.42864 6.71602 3.47873e-016 1.59028e-015 3.97569e-016 -1.00608 -11.8855 4.57573 -0.880248 21.7058 0.661345 -0.207215 -9.51911 -10.2666 1.98785e-016 1.59028e-015 1.59028e-015 
5.76347 90.673 -89.5541 0.717311 8.08024 -2.32317 0.305662 7.36366 0.669036 -6.44544 -18.8418 -4.44843 10.7001 16.7935 -7.23087 -84.8532 22.9779 -7.83043 13.2868 -3.80389 -26.5636 -0.595404 2.39321 -2.51251 88.2085 22.2831 6.866 -17.2611 -5.98271 29.8628 0.664435 5.98904 0.0304082 1.11569 -12.4036 -0.102003 0.0993419 20.5796 -0.59342 -0.63198 -9.0283 6.20211 2.98177e-016 -2.38542e-015 -7.95139e-016 -0.80461 -13.0258 4.32971 -0.890282 22.9837 0.641268 -0.288009 -9.86421 -10.1891 5.96354e-016 0 1.59028e-015 
5.81529 90.3583 -90.0228 0.816716 8.50659 -2.02442 0.276662 8.88844 0.643595 -6.71188 -19.621 -4.70022 10.8993 15.5929 -7.35685 -84.1094 23.572 -8.79388 14.264 -4.438 -28.6665 -0.253153 4.85009 -2.7202 87.4821 23.6333 7.77465 -17.8216 -6.55552 31.2238 0.480493 2.99711 0.126669 0.952218 -14.901 -0.204038 0.138168 23.5592 -0.521318 -0.505129 -9.89905 6.01283 1.49089e-016 -1.59028e-015 -3.97569e-016 -0.97511 -15.3543 3.62698 -0.876898 25.9113 0.634077 -0.524433 -10.8522 -9.93098 5.96354e-016 -1.59028e-015 -0 
5.7887 89.8211 -90.6292 0.379196 8.96462 -1.91742 0.701186 11.0019 0.853911 -6.96058 -21.1716 -4.77922 11.0834 14.7375 -7.14761 -83.1056 25.5144 -9.9147 14.9605 -5.06327 -30.3571 -0.530367 1.04908 -2.57358 86.1946 24.9217 9.09694 -18.8246 -7.40928 33.4468 0.703937 3.91002 -0.164215 1.71651 -18.6917 0.653321 0.194073 28.5272 -0.408461 -0.317307 -11.5988 5.11438 5.96354e-016 7.95139e-016 3.97569e-016 -0.319799 -18.7396 3.48544 -0.836793 30.0379 0.604733 -0.769955 -11.829 -9.99079 -5.96354e-016 1.59028e-015 -1.59028e-015 
5.81106 88.9513 -91.3781 -0.204314 9.05987 -1.56349 1.35828 14.1076 0.926663 -7.19467 -22.6497 -5.19237 11.072 12.9146 -7.40927 -81.809 26.3464 -11.353 16.295 -6.21478 -33.4608 -0.389799 3.54458 -2.53023 84.8789 26.1606 10.4525 -20.0033 -8.79396 36.4821 0.390176 2.38677 0.101268 2.80615 -22.8515 1.68807 0.229674 34.8474 -0.267443 -0.177267 -13.6776 3.87684 2.98177e-016 0 -3.97569e-016 0.207282 -22.0705 2.52821 -0.804141 35.1277 0.554729 -1.03798 -13.4154 -9.65555 1.78906e-015 -1.59028e-015 1.59028e-015 
5.7526 87.6439 -92.1437 -0.66358 9.69903 -1.45349 1.76088 16.6121 1.16505 -7.47046 -24.1356 -5.29098 11.3007 11.243 -7.1004 -80.5136 28.2568 -11.765 17.9719 -7.99861 -37.7242 -0.532952 2.59467 -2.26557 83.3932 27.9348 11.3572 -21.8322 -10.7717 40.9172 0.773984 2.81769 -0.232481 4.05418 -27.7726 2.75996 0.147192 41.5715 -0.0234947 -0.0686934 -16.1633 2.86191 2.48481e-016 -1.59028e-015 -0 0.526732 -26.8958 1.64454 -0.65711 41.4495 0.47012 -1.35665 -15.4703 -9.04462 1.98785e-016 0 1.59028e-015 
5.69968 85.9372 -93.0819 -0.692182 10.9844 -1.13972 1.6442 19.0085 0.99926 -7.17881 -25.3374 -5.48826 10.8557 8.63008 -6.84791 -78.847 29.673 -12.7149 19.8897 -10.212 -42.6505 -0.465541 1.42722 -2.21018 81.7469 29.6252 12.5021 -23.5623 -13.143 45.6714 0.940381 4.31625 -0.350675 4.83232 -33.7268 3.60372 -0.119099 48.0127 0.384001 -0.0270707 -18.156 2.2838 5.96354e-016 -1.59028e-015 -0 -0.00831127 -32.9073 0.0911827 -0.360493 48.4949 0.198653 -1.67366 -17.7718 -8.76588 9.93923e-016 -1.59028e-015 -0 
5.59806 84.0297 -93.992 -0.446652 12.7878 -1.17455 1.16529 20.8657 1.10719 -7.30545 -27.2804 -5.69606 11.1027 7.03981 -6.51095 -77.6804 30.4435 -12.9956 21.8141 -13.1021 -48.4987 -0.53347 0.282413 -1.92705 79.8329 30.9524 14.1172 -25.1425 -16.2289 51.3401 0.928427 2.7656 -0.217046 5.75352 -40.0012 5.09439 -0.575055 54.3728 0.95684 0.0754966 -20.1765 2.22252 -7.95139e-016 0 1.59028e-015 -1.06736 -39.8538 -1.50222 0.154033 55.8383 -0.195292 -1.89 -19.6212 -8.23898 -1.98785e-016 -1.59028e-015 -0 
5.42714 81.8034 -94.974 -0.643338 15.1573 -1.28285 0.94079 22.4193 1.6275 -7.09752 -28.8392 -5.91902 10.7978 4.89476 -6.67018 -76.7021 30.267 -13.9101 23.4807 -15.8961 -54.0827 -0.283772 -0.040285 -2.02595 78.5595 31.2644 15.5001 -26.3456 -19.3531 57.1174 1.13304 3.15837 -0.283617 8.14815 -47.1819 7.18215 -1.3512 61.0822 1.85475 -0.140816 -21.9589 1.17473 5.96354e-016 -7.95139e-016 -2.38542e-015 -1.51247 -47.4535 -2.53733 0.949289 62.9336 -0.827764 -2.00875 -20.9648 -7.637 1.39149e-015 3.18055e-015 -3.18055e-015 
5.32274 79.3366 -95.9074 -0.849744 17.613 -1.27287 0.976736 23.9786 1.81261 -7.19256 -31.0245 -5.97654 10.6894 2.85857 -6.22087 -76.7596 28.9116 -14.642 24.6374 -18.6939 -59.823 -0.233004 -0.237153 -1.96698 77.0249 31.0078 17.3235 -26.9634 -22.0825 62.6206 1.4001 2.9071 -0.310943 11.2393 -54.4312 10.0131 -2.57726 67.7494 3.18892 -0.210981 -23.8086 0.874592 -1.98785e-016 -7.95139e-016 -1.59028e-015 -2.49434 -55.0206 -4.7943 2.20406 69.9473 -2.06059 -2.84727 -22.2357 -9.86161 8.82781e-032 -3.18055e-015 1.59028e-015 
5.17846 76.6807 -96.743 -0.728212 19.8645 -1.0184 0.678832 25.5868 1.8118 -7.46722 -32.1172 -6.3234 11.1038 -0.577311 -6.02897 -77.3553 26.9258 -15.6092 25.2406 -20.8903 -65.0051 -0.492416 -0.0599002 -1.85721 76.0885 29.7287 19.4952 -27.2668 -23.8479 66.9372 1.66723 2.06866 -0.401598 14.3659 -61.3318 12.7732 -4.61773 74.308 5.30456 -0.387835 -25.4408 0.37251 9.93923e-017 -1.59028e-015 7.95139e-016 -4.80259 -62.2135 -7.46438 4.45176 76.7158 -4.23749 -3.37823 -23.6982 -10.549 1.19271e-015 1.59028e-015 1.59028e-015 
5.06283 74.0551 -97.6236 -1.18812 22.0179 -0.551744 1.13154 26.7614 1.72552 -7.48378 -32.145 -6.42359 11.1633 -5.27307 -5.45965 -78.6645 24.4637 -16.9246 26.0957 -22.1201 -68.9343 -0.517683 1.33971 -2.15574 75.2763 28.0903 21.4323 -27.3733 -24.768 69.7228 1.75837 1.42589 -0.352532 19.3926 -68.0293 16.5973 -8.95437 80.519 9.68951 -0.531735 -26.6858 0.0311101 9.93923e-017 0 -7.95139e-016 -6.81646 -68.865 -9.95341 9.32005 82.5203 -9.10212 -3.93918 -24.898 -11.4953 -1.19271e-015 -1.59028e-015 -3.18055e-015 
4.99413 72.1531 -98.0022 -1.3568 22.6151 0.0148053 1.58452 28.7421 1.18229 -7.44912 -32.5915 -6.26011 11.2804 -8.90479 -4.58234 -79.8876 21.9439 -18.6955 25.8711 -22.8602 -71.5552 -0.465672 -1.30309 -1.74208 74.0756 26.6728 24.1547 -27.5915 -24.9262 70.2611 1.88137 1.13858 -0.385695 23.2086 -72.0546 19.6743 -17.4744 84.8051 18.2449 -0.97407 -27.0582 -0.99205 4.96962e-016 -1.59028e-015 -7.95139e-016 -9.63639 -72.4024 -12.7217 24.1754 86.8292 -23.9538 -4.33054 -25.9152 -11.9304 -1.59028e-015 1.59028e-015 -0 
